<svg xmlns="http://www.w3.org/2000/svg" viewBox="0 0 262.22 32"><g id="Calque_2" data-name="Calque 2"><g id="noir"><polygon points="0 31.71 0 0.28 6.29 0.28 6.29 26.36 12.75 26.36 12.75 31.71 0 31.71" style="fill:#333"/><polygon points="14.54 31.71 14.54 0.28 27.11 0.28 27.11 6.36 20.93 6.36 20.93 12.48 26.86 12.48 26.86 18.39 20.93 18.39 20.93 25.59 27.52 25.59 27.52 31.71 14.54 31.71" style="fill:#333"/><path d="M37.07,32q-4.3,0-6.21-2.14C29.6,28.43,29,26.15,29,23V20h6.22v3.93a3.88,3.88,0,0,0,.32,1.72,1.22,1.22,0,0,0,1.16.6,1.29,1.29,0,0,0,1.18-.5,3,3,0,0,0,.34-1.64,8.63,8.63,0,0,0-.29-2.41,5.29,5.29,0,0,0-1-1.86A19.94,19.94,0,0,0,35,17.73l-2.83-2.68A9.16,9.16,0,0,1,29,8.23q0-4,1.86-6.12A6.84,6.84,0,0,1,36.23,0q4.32,0,6.13,2.3t1.82,7H37.79V7.14a1.26,1.26,0,0,0-1.36-1.35,1.38,1.38,0,0,0-1.11.42A1.7,1.7,0,0,0,35,7.29a3.35,3.35,0,0,0,.36,1.42,6.21,6.21,0,0,0,1.41,1.77L40.37,14a19.67,19.67,0,0,1,2,2.2,9.34,9.34,0,0,1,1.47,2.68,10.87,10.87,0,0,1,.55,3.71,12.58,12.58,0,0,1-1.64,7C41.67,31.17,39.77,32,37.07,32Z" style="fill:#333"/><path d="M61.25,13.62h.36c1.16,0,1.88-.32,2.14-1a8.2,8.2,0,0,0,.39-2.89A7.6,7.6,0,0,0,63.75,7,1.7,1.7,0,0,0,62,6h-.7ZM55.07,31.71V.29h8.3A6.6,6.6,0,0,1,67.5,1.45a6.33,6.33,0,0,1,2.2,3.3,17.47,17.47,0,0,1,.66,5.11,19.86,19.86,0,0,1-.56,5,6.1,6.1,0,0,1-2,3.27,6.19,6.19,0,0,1-4,1.16H61.25V31.71Z" style="fill:#333"/><polygon points="72.36 31.71 72.36 0.28 84.93 0.28 84.93 6.36 78.75 6.36 78.75 12.48 84.68 12.48 84.68 18.39 78.75 18.39 78.75 25.59 85.34 25.59 85.34 31.71 72.36 31.71" style="fill:#333"/><polygon points="90.13 31.71 90.13 6.32 86.39 6.32 86.39 0.28 100.14 0.28 100.14 6.32 96.41 6.32 96.41 31.71 90.13 31.71" style="fill:#333"/><rect x="101.61" y="0.29" width="6.07" height="31.43" style="fill:#333"/><polygon points="112.88 31.71 112.88 6.32 109.14 6.32 109.14 0.28 122.89 0.28 122.89 6.32 119.16 6.32 119.16 31.71 112.88 31.71" style="fill:#333"/><path d="M132.11,32q-4.31,0-6.22-2.14C124.63,28.43,124,26.15,124,23V20h6.21v3.93a3.73,3.73,0,0,0,.33,1.72,1.21,1.21,0,0,0,1.16.6,1.26,1.26,0,0,0,1.17-.5,3,3,0,0,0,.34-1.64,8.67,8.67,0,0,0-.28-2.41,5.45,5.45,0,0,0-1-1.86,21.38,21.38,0,0,0-2-2.07l-2.82-2.68A9.12,9.12,0,0,1,124,8.23q0-4,1.86-6.12A6.84,6.84,0,0,1,131.27,0q4.32,0,6.12,2.3c1.22,1.54,1.82,3.87,1.82,7h-6.39V7.14a1.31,1.31,0,0,0-.37-1,1.33,1.33,0,0,0-1-.35,1.35,1.35,0,0,0-1.1.42A1.64,1.64,0,0,0,130,7.29a3.48,3.48,0,0,0,.35,1.42,6.1,6.1,0,0,0,1.42,1.77L135.41,14a20.69,20.69,0,0,1,2,2.2,9.09,9.09,0,0,1,1.46,2.68,10.85,10.85,0,0,1,.56,3.71,12.67,12.67,0,0,1-1.64,7Q136.15,32,132.11,32Z" style="fill:#333"/><path d="M156.29,13.62h.35c1.17,0,1.88-.32,2.15-1a8.2,8.2,0,0,0,.39-2.89A7.6,7.6,0,0,0,158.79,7,1.71,1.71,0,0,0,157,6h-.69Zm-6.18,18.09V.29h8.3a6.62,6.62,0,0,1,4.13,1.16,6.31,6.31,0,0,1,2.19,3.3,17.47,17.47,0,0,1,.66,5.11,19.9,19.9,0,0,1-.55,5,6.1,6.1,0,0,1-2,3.27,6.19,6.19,0,0,1-4,1.16h-2.55V31.71Z" style="fill:#333"/><polygon points="167.39 31.71 167.39 0.28 173.68 0.28 173.68 26.36 180.14 26.36 180.14 31.71 167.39 31.71" style="fill:#333"/><path d="M188,21.62h2.85l-1.37-16h-.29Zm-7,10.09,3-31.42h10.66l3,31.42H191.8l-.44-5.07h-3.79l-.39,5.07Z" style="fill:#333"/><polygon points="201.91 31.71 201.91 6.32 198.18 6.32 198.18 0.28 211.93 0.28 211.93 6.32 208.2 6.32 208.2 31.71 201.91 31.71" style="fill:#333"/><path d="M221.14,32q-4.3,0-6.21-2.14c-1.26-1.43-1.9-3.71-1.9-6.82V20h6.22v3.93a3.88,3.88,0,0,0,.32,1.72,1.22,1.22,0,0,0,1.16.6,1.28,1.28,0,0,0,1.18-.5,3,3,0,0,0,.34-1.64,8.63,8.63,0,0,0-.29-2.41,5.29,5.29,0,0,0-1-1.86A19.94,19.94,0,0,0,219,17.73l-2.82-2.68A9.13,9.13,0,0,1,213,8.23q0-4,1.86-6.12A6.86,6.86,0,0,1,220.3,0c2.88,0,4.93.77,6.13,2.3s1.82,3.87,1.82,7h-6.39V7.14a1.26,1.26,0,0,0-1.36-1.35,1.38,1.38,0,0,0-1.11.42,1.7,1.7,0,0,0-.34,1.08,3.35,3.35,0,0,0,.36,1.42,6.21,6.21,0,0,0,1.41,1.77L224.45,14a21.82,21.82,0,0,1,2,2.2,9.57,9.57,0,0,1,1.46,2.68,10.87,10.87,0,0,1,.55,3.71,12.58,12.58,0,0,1-1.64,7C225.74,31.17,223.84,32,221.14,32Z" style="fill:#333"/><path d="M248.26,31.71a13.71,13.71,0,0,0,14-13.46,14,14,0,0,0-27.93,0A13.72,13.72,0,0,0,248.26,31.71Zm0-2a11.68,11.68,0,0,0,11.93-11.43,11.95,11.95,0,0,0-23.87,0A11.69,11.69,0,0,0,248.26,29.68Z" style="fill:#333;fill-rule:evenodd"/><path d="M248.26,27.65a9.4,9.4,0,1,0-9.4-9.4A9.39,9.39,0,0,0,248.26,27.65Z" style="fill:#333;fill-rule:evenodd"/></g></g></svg>